<svg width="156" height="149" viewBox="0 0 156 149" fill="none" xmlns="http://www.w3.org/2000/svg">
<path d="M111.134 69.2039C111.355 69.2039 111.534 69.025 111.534 68.8043C111.534 68.5836 111.355 68.4046 111.134 68.4046C110.913 68.4046 110.734 68.5836 110.734 68.8043C110.734 69.025 110.913 69.2039 111.134 69.2039Z" fill="url(#paint0_radial_11_5)"/>
<path d="M108.237 59.5129L110.135 59.1632" stroke="#14171C" stroke-width="5" stroke-miterlimit="10"/>
<path d="M61.6298 147.731C59.8315 148.38 55.1858 150.179 51.9888 147.731C50.5901 146.632 49.8907 145.083 49.5411 144.134C48.8917 144.884 47.5429 146.232 45.5448 146.582C42.3977 147.182 39.0008 145.083 37.1026 141.287C33.2062 145.133 30.9083 145.333 29.5596 144.834C26.6623 143.735 27.4116 139.039 23.3653 135.792C20.1683 133.195 17.7705 134.643 16.3718 132.245C14.6235 129.198 17.9703 126.101 16.3718 122.554C14.7234 118.858 10.1776 120.456 8.12948 116.31C6.78073 113.613 8.32929 112.114 6.73078 108.318C5.43198 105.27 4.13319 105.57 3.23402 103.172C1.68546 99.0262 5.23217 96.9781 4.68268 91.8829C4.03328 85.9384 -0.712318 83.8903 0.186848 79.844C0.686385 77.5462 2.68453 76.1474 4.13319 75.3981C0.786292 64.8579 1.43569 61.0614 2.78444 59.6627C3.73356 58.6637 4.68268 57.6646 6.58092 55.6165C7.87971 54.2677 8.07952 53.968 8.22939 53.4685C8.82883 51.1706 6.13133 49.4222 5.6318 47.0245C5.18221 44.9764 6.18129 41.6295 13.1748 36.0347C13.1248 28.092 14.7733 25.5944 16.2719 24.845C18.4699 23.6961 20.6678 25.6943 22.5161 24.0957C24.4643 22.3973 22.8159 19.2502 24.7141 16.8025C26.8121 14.105 30.5087 17.1022 33.3061 14.4047C34.9546 12.8062 33.9056 11.6573 36.5032 7.61104C36.5032 7.61104 38.9009 3.91447 41.1988 3.81456C41.4486 3.81456 41.6484 3.81456 41.6484 3.81456C42.2978 3.91447 42.7973 4.414 45.5448 5.31317C47.9425 6.11243 49.0915 6.51206 49.9407 6.26229C51.8889 5.66285 51.739 3.51484 54.0369 1.76646C56.2348 0.0180833 58.8324 0.117991 59.282 0.167944C63.2783 0.317805 64.3773 3.6647 67.4744 3.06526C69.023 2.76553 68.8731 1.91632 71.5706 0.817342C73.0692 0.217898 74.9675 -0.58136 76.8157 -0.131778C80.0128 0.617527 79.6631 4.21419 82.6603 5.66285C86.8065 7.71095 90.3032 2.16609 94.7991 4.26414C97.5465 5.51298 97.3467 8.11057 99.8943 8.56016C103.141 9.1596 104.59 5.26322 107.188 5.96257C110.285 6.81178 109.785 12.6564 113.332 14.0051C116.179 15.1041 117.828 11.957 120.325 13.1059C123.922 14.7544 122.573 22.1975 126.42 23.9459C128.668 24.9949 130.116 22.8469 132.015 24.0957C134.562 25.8441 132.564 30.29 135.262 33.3372C137.609 36.0347 140.357 33.9366 142.805 36.6841C145.202 39.3816 143.154 42.129 145.502 46.2252C147.85 50.3714 150.847 49.3723 152.196 53.0189C153.545 56.5656 150.847 58.1142 151.596 63.0096C152.446 68.4546 156.192 69.104 155.992 73.0004C155.743 77.2964 151.147 77.5462 150.447 82.3417C149.748 87.0374 153.794 89.1354 152.545 93.4814C151.696 96.4786 149.598 96.2788 148.949 99.4259C148.2 103.122 150.847 104.871 149.848 107.468C148.849 110.166 145.852 109.017 143.704 111.964C141.106 115.511 143.953 119.208 141.556 122.554C139.208 125.801 135.611 123.454 132.914 126.8C130.116 130.297 132.364 134.943 129.717 136.791C127.669 138.24 125.82 135.892 123.273 137.441C120.675 138.989 121.524 142.036 119.077 143.435C116.629 144.784 114.93 142.236 111.883 143.585C109.585 144.634 109.485 146.582 107.787 146.832C105.589 147.132 103.991 144.134 102.542 142.636C95.1487 135.343 71.2209 144.184 61.6298 147.731Z" fill="#3E3C6E"/>
<path d="M108.287 62.8098C104.09 58.1142 99.7444 63.9587 99.7444 63.9587C99.7444 63.9587 99.7444 63.9587 105.689 68.4046C111.633 72.8505 112.533 67.5054 112.533 67.5054C112.533 67.5054 116.229 63.8089 112.932 61.561C109.635 59.3131 108.287 62.8098 108.287 62.8098Z" fill="white"/>
<path d="M44.1461 71.7515C48.3422 67.0559 52.6881 72.9005 52.6881 72.9005C52.6881 72.9005 52.6881 72.9005 46.7437 77.3464C40.7992 81.7922 39.9 76.4472 39.9 76.4472C39.9 76.4472 36.2034 72.7506 39.5004 70.5027C42.8473 68.2548 44.1461 71.7515 44.1461 71.7515Z" fill="white"/>
<path d="M108.386 45.2261C108.836 48.5231 108.736 52.1697 110.035 59.8126C110.734 63.9588 110.884 63.5092 111.034 65.3075C111.833 73.2002 109.036 79.6442 107.437 83.1909C106.238 85.8884 106.189 85.3389 99.8944 95.1798C93.0507 105.87 92.0516 108.118 88.7547 109.566C85.4078 110.965 82.3606 110.366 77.3153 109.317C73.9185 108.617 65.1766 106.769 57.4837 100.625C41.7483 88.0364 41.9481 66.8561 41.9981 65.7071C42.5975 42.4787 62.4291 21.698 80.862 20.599C82.7603 20.4991 90.4531 20.0495 97.1469 24.7951C106.338 31.389 108.187 43.8774 108.386 45.2261Z" fill="white"/>
<path d="M30.1591 79.9439C30.1591 79.9439 31.7576 67.3056 40.4995 65.807C49.2414 64.3084 37.2525 53.9181 49.1914 54.2178C61.1303 54.5175 44.3459 49.8718 58.8824 44.6766C73.4189 39.4815 83.7094 44.3769 78.5641 37.4334C73.4189 30.4898 104.69 38.5823 101.493 52.1697C98.2958 65.7571 144.403 22.9968 110.185 16.0532C75.9666 9.10964 116.979 -4.17803 74.0683 9.10964C31.1581 22.3973 30.1591 79.9439 30.1591 79.9439Z" fill="#3E3C6E"/>
<path d="M67.5743 55.5666C65.0267 55.5666 62.4791 55.5666 59.9314 55.5666C58.9823 55.6165 57.8334 55.7164 56.5845 56.0161C54.7862 56.4158 53.3375 57.0652 52.2885 57.6646C50.69 58.9134 49.1414 60.1623 47.5429 61.4111C48.8417 59.2132 50.0905 57.0652 51.3893 54.8672C51.789 54.4176 52.3884 53.8182 53.2876 53.3686C53.7871 53.1188 54.3366 52.8691 56.2348 52.6193C58.6326 52.2696 60.5309 52.2197 61.3301 52.2696C62.2293 52.3196 63.1285 52.3196 64.0276 52.3695" fill="#3E3C6E"/>
<path d="M83.6594 54.2678C85.9572 53.1688 88.2551 52.1197 90.553 51.0208C91.4022 50.6711 92.5012 50.2715 93.75 50.0217C95.5483 49.6221 97.1469 49.6221 98.3457 49.672C100.294 50.1216 102.242 50.5712 104.24 51.0208C102.142 49.5721 100.044 48.1734 97.9461 46.7248C97.3966 46.475 96.5974 46.2252 95.5983 46.1753C95.0488 46.1753 94.4494 46.1753 92.6011 46.7747C90.3032 47.4741 88.5548 48.2234 87.8055 48.623C87.0063 49.0226 86.207 49.4223 85.3578 49.8718" fill="#3E3C6E"/>
<path d="M41.8982 78.1955C42.2017 78.1955 42.4477 77.9495 42.4477 77.646C42.4477 77.3426 42.2017 77.0966 41.8982 77.0966C41.5947 77.0966 41.3487 77.3426 41.3487 77.646C41.3487 77.9495 41.5947 78.1955 41.8982 78.1955Z" fill="#3E3C6E"/>
<path d="M73.6187 62.0105C74.1182 61.6609 74.8676 60.8616 77.0655 60.8117C79.4133 60.7617 79.4133 60.9116 81.1118 61.8607" stroke="#3E3C6E" stroke-width="2" stroke-miterlimit="10"/>
<path d="M66.0258 58.9134C61.2302 58.314 52.5882 61.6109 52.5882 61.6109L48.7418 63.4093L46.5938 64.1086C46.6437 65.1576 46.6437 66.2566 46.5438 67.3556C47.0434 67.7053 47.4929 68.3547 47.6928 69.6035C48.2422 73.2501 53.4374 81.6923 61.2802 80.6433C69.1229 79.5942 76.0165 76.8468 73.6187 62.1105C73.6687 62.1604 70.8213 59.4629 66.0258 58.9134Z" stroke="#3E3C6E" stroke-width="2" stroke-miterlimit="10"/>
<path d="M108.386 60.0624C108.337 59.9625 108.287 59.9125 108.237 59.8126C107.937 59.1133 107.787 58.4139 107.837 57.7146L105.339 57.4648L101.093 56.5157C101.093 56.5157 91.7519 55.2169 87.306 56.8154C82.8601 58.4139 80.862 61.6109 80.862 61.6109C82.7602 76.3972 90.2033 77.5462 98.096 76.8468C105.989 76.1475 108.586 66.8061 108.087 63.1595C107.937 62.1105 108.087 61.4611 108.386 60.9615C108.386 60.7617 108.337 60.4121 108.386 60.0624Z" stroke="#3E3C6E" stroke-width="2" stroke-miterlimit="10"/>
<path d="M41.6484 65.5573L46.5938 66.8061" stroke="#3E3C6E" stroke-width="2" stroke-miterlimit="10"/>
<path d="M69.7224 71.4018C69.7224 71.4018 62.4291 64.0087 54.6863 71.8514C54.6863 71.8514 53.7372 72.7006 52.6882 71.5517" stroke="#3E3C6E" stroke-miterlimit="10"/>
<path d="M88.8046 69.7534C88.8046 69.7534 94.5992 61.1613 103.641 67.4056C103.641 67.4056 104.74 68.055 105.539 66.7062" stroke="#3E3C6E" stroke-miterlimit="10"/>
<path d="M111.434 68.2048C111.737 68.2048 111.983 67.9588 111.983 67.6553C111.983 67.3518 111.737 67.1058 111.434 67.1058C111.13 67.1058 110.884 67.3518 110.884 67.6553C110.884 67.9588 111.13 68.2048 111.434 68.2048Z" fill="#3E3C6E"/>
<path d="M108.386 58.7136L113.332 57.4148" stroke="#3E3C6E" stroke-width="2" stroke-miterlimit="10"/>
<defs>
<radialGradient id="paint0_radial_11_5" cx="0" cy="0" r="1" gradientUnits="userSpaceOnUse" gradientTransform="translate(111.148 68.8146) scale(0.42388 0.423884)">
<stop offset="0.0642458" stop-color="#FADABB"/>
<stop offset="0.2598" stop-color="#FFEF26"/>
<stop offset="0.3185" stop-color="#FFF13D"/>
<stop offset="0.5038" stop-color="#FFF681"/>
<stop offset="0.6712" stop-color="#FFFAB7"/>
<stop offset="0.8149" stop-color="#FFFDDE"/>
<stop offset="0.9292" stop-color="#FFFEF6"/>
<stop offset="1" stop-color="white"/>
</radialGradient>
</defs>
</svg>
